<?xml version="1.0" encoding="UTF-8" standalone="no"?>
<!DOCTYPE svg PUBLIC "-//W3C//DTD SVG 1.1//EN" "http://www.w3.org/Graphics/SVG/1.1/DTD/svg11.dtd">
<svg width="100%" height="100%" viewBox="0 0 743 114" version="1.1" xmlns="http://www.w3.org/2000/svg" xmlns:xlink="http://www.w3.org/1999/xlink" xml:space="preserve" xmlns:serif="http://www.serif.com/" style="fill-rule:evenodd;clip-rule:evenodd;stroke-linejoin:round;stroke-miterlimit:2;">
    <g>
        <g>
            <path d="M59.6,1C61.1,1 63.7,1.1 65.2,1.2C66.8,1.4 69.4,1.8 71,2.1C72.6,2.4 75.3,3.1 76.8,3.6C78.4,4 80.4,4.7 81.3,5.1C82.2,5.5 84.5,6.6 86.4,7.5C88.3,8.5 90.7,9.8 91.8,10.6C92.9,11.3 94.9,12.8 96.3,13.9C97.7,15 100,17 101.4,18.4C102.7,19.7 104.8,22.1 106,23.5C107.2,25 108.8,27.3 109.7,28.6C110.5,30 111.8,32.2 112.6,33.6C113.3,35 114.5,37.6 115.2,39.5C116,41.4 116.9,44.3 117.3,46C117.8,47.7 118.4,50.6 118.6,52.4C119,54.9 119.1,56.8 118.9,61.7C118.8,66.8 118.7,68.3 118.1,71.2C117.6,73.1 116.9,76 116.3,77.7C115.8,79.4 114.7,82.1 114,83.7C113.3,85.3 111.9,88 111,89.6C110,91.3 108.4,93.7 107.3,95.2C106.3,96.5 104.1,99.1 102.4,100.9C100.8,102.7 98.2,105 96.9,106.1C95.5,107.3 93.3,108.9 92.1,109.7C90.8,110.5 88.9,111.6 87.8,112.1C86.2,112.9 85.6,113.1 84.7,113C84.1,112.9 83.2,112.5 82.7,112.2C82.1,111.9 81.5,111.2 81.1,110.3C80.7,109.3 80.6,108.7 80.7,107.9C80.9,107.2 81.1,106.4 81.3,106C81.6,105.6 82.1,105.1 82.5,104.8C83,104.5 84.6,103.5 86.3,102.5C87.9,101.6 90.6,99.7 92.2,98.3C93.8,97 96.1,94.9 97.1,93.7C98.2,92.5 99.6,90.9 100.2,90.1C100.8,89.3 102,87.5 102.8,86.2C103.7,84.8 104.9,82.5 105.6,80.9C106.3,79.4 107.1,77.2 107.5,75.9C107.9,74.7 108.5,72.8 108.7,71.8C109,70.8 109.4,68.4 109.6,66.5C109.8,64.5 110,61.7 110,60.1C110,58.6 109.8,55.6 109.6,53.6C109.3,51.6 108.9,48.9 108.6,47.7C108.3,46.5 107.5,44.1 107,42.5C106.3,40.8 105.1,38.1 104.2,36.4C103.4,34.7 101.9,32.2 101,30.9C100,29.6 98.3,27.5 97.2,26.2C96.1,25 94,23 92.6,21.8C91.2,20.6 89.1,19 87.8,18.2C86.6,17.4 84,16 82.2,15.1C80.2,14.1 77.3,13 75.3,12.4C73.3,11.8 70.3,11.1 68.5,10.8C65.9,10.3 64.1,10.2 60,10.2C55.9,10.2 54.1,10.3 51.5,10.8C49.7,11.1 46.7,11.8 44.7,12.4C42.7,13 39.8,14.1 37.8,15.1C36,16 33.4,17.4 32.2,18.2C30.9,19 28.8,20.6 27.5,21.7C26.2,22.8 24.1,24.8 22.9,26.1C21.7,27.4 19.8,29.8 18.8,31.3C17.7,32.9 16.3,35.3 15.6,36.7C14.9,38.1 13.8,40.4 13.3,41.9C12.7,43.4 11.9,45.7 11.6,47.1C11.2,48.5 10.7,51.4 10.5,53.5C10.2,55.6 10,58.6 10,60.1C10,61.7 10.2,64.5 10.4,66.5C10.6,68.4 11,70.8 11.3,71.8C11.5,72.8 12.1,74.7 12.5,75.9C12.9,77.2 13.7,79.4 14.4,80.9C15.1,82.5 16.3,84.7 17.1,86C17.9,87.3 19.2,89.3 20.1,90.3C20.9,91.4 22.6,93.4 23.8,94.6C25,95.9 27.2,97.9 28.6,99C30.1,100.2 32,101.6 32.9,102.1C33.7,102.7 35.1,103.4 35.8,103.8C36.6,104.2 37.7,105 38.2,105.6C38.8,106.2 39.2,107 39.3,107.8C39.4,108.7 39.3,109.3 38.8,110.4C38.2,111.5 37.8,111.9 36.8,112.4C36.1,112.8 35.3,113.1 34.9,113.1C34.5,113.1 33.3,112.7 32.2,112.1C31.1,111.6 29.2,110.5 27.9,109.7C26.7,108.9 24.5,107.3 23.1,106.1C21.8,105 19.2,102.7 17.6,100.9C15.9,99.1 13.7,96.5 12.7,95.2C11.6,93.7 10,91.3 9,89.6C8.1,88 6.7,85.3 6,83.7C5.3,82.1 4.2,79.4 3.7,77.7C3.1,76 2.4,73.1 1.9,71.2C1.3,68.3 1.2,66.8 1.1,61.7C0.9,56.8 1,54.9 1.4,52.4C1.6,50.6 2.2,47.7 2.7,46C3.1,44.3 4,41.4 4.8,39.5C5.5,37.6 6.7,35 7.4,33.6C8.2,32.2 9.5,30 10.3,28.6C11.2,27.3 12.8,25 14,23.5C15.2,22 17.4,19.6 18.8,18.2C20.3,16.8 22.6,14.7 24.1,13.6C25.6,12.4 27.8,10.9 28.9,10.1C30.1,9.4 33,7.8 35.3,6.7C37.6,5.6 41,4.2 42.8,3.7C44.6,3.2 47.4,2.4 49,2.1C50.6,1.8 53,1.4 54.3,1.3C55.7,1.1 58,1 59.6,1ZM59.4,19.1C60,19 61.8,19.2 63.4,19.3C65,19.5 67.6,20 69.2,20.3C70.7,20.7 73.3,21.6 74.8,22.2C76.4,22.8 78.2,23.6 78.9,24C79.6,24.4 81.3,25.5 82.7,26.5C84.2,27.5 86.6,29.5 88.4,31.3C90.1,33 92.3,35.4 93.2,36.7C94.1,37.9 95.6,40.3 96.5,42C97.3,43.7 98.4,46.4 98.9,47.8C99.4,49.3 100,51.7 100.3,53.2C100.6,55 100.8,57.3 100.8,60.1C100.8,63 100.6,65.3 100.3,67.2C100,68.7 99.4,71.1 99,72.4C98.5,73.7 97.6,76.1 96.9,77.6C96.1,79.2 95,81.2 94.5,82.1C93.9,83 93.4,83.7 93.2,83.6C93.1,83.6 92.4,82 91.7,80.2C91,78.3 90.2,76 89.1,73.4L89.7,71.8C90,71 90.5,69.3 90.8,68.2C91.1,67 91.5,64.7 91.6,63.1C91.8,61.1 91.8,59.1 91.6,57.2C91.5,55.5 91,52.9 90.6,51.4C90.2,49.8 89.4,47.5 88.8,46.2C88.1,44.8 87,42.9 86.4,41.8C85.6,40.7 83.9,38.6 82.5,37.2C81.1,35.8 79,34.1 77.8,33.4C76.6,32.6 74.6,31.6 73.4,31.1C72.2,30.5 69.9,29.7 68.3,29.3C65.7,28.5 65.2,28.5 60,28.5C55,28.5 54.3,28.6 51.8,29.3C50.3,29.7 48,30.4 46.7,31C45.4,31.6 43.4,32.6 42.2,33.4C41,34.1 38.9,35.8 37.5,37.2C36.1,38.6 34.4,40.7 33.7,41.8C33,42.9 31.9,44.6 31.4,45.7C30.9,46.8 30.2,48.5 29.8,49.5C29.5,50.5 29,52.5 28.8,53.9C28.5,55.4 28.3,57.9 28.3,60C28.3,61.9 28.4,64.5 28.6,65.6C28.8,66.8 29.4,69 29.8,70.4C30.4,72.1 30.6,73.4 30.5,73.8C30.4,74.2 29.7,76.2 28.9,78.3C28.1,80.4 27.3,82.5 27.2,82.9C27,83.4 26.8,83.7 26.7,83.7C26.6,83.7 26.1,83 25.5,82.1C25,81.2 23.9,79.2 23.2,77.8C22.5,76.3 21.6,74 21.1,72.5C20.6,71.2 20,68.7 19.7,67.2C19.4,65.4 19.2,62.9 19.2,60.3C19.2,57.4 19.3,55.3 19.7,53.2C20,51.6 20.7,49 21.2,47.4C21.8,45.9 22.9,43.3 23.8,41.6C24.6,40 26,37.7 26.9,36.5C27.7,35.4 29.8,33 31.6,31.3C33.4,29.5 35.8,27.5 37.3,26.5C38.7,25.5 40.4,24.4 41.1,24C41.8,23.6 43.6,22.8 45.2,22.2C46.7,21.6 49.3,20.7 50.9,20.3C52.5,19.9 54.8,19.5 56.1,19.3C57.4,19.2 58.9,19.1 59.4,19.1Z"/>
            <path d="M59.9,42.3L86.9,93.5L60,85.6L32.9,93.5L59.9,42.3Z" style="fill-rule:nonzero;"/>
        </g>
        <g transform="matrix(0.815933,0,0,0.815933,11.5698,47.7091)">
            <text x="151.347px" y="62.926px" style="font-family:'ArialRoundedMTBold', 'Arial Rounded MT Bold', sans-serif;font-size:144px;">A<tspan x="242.261px 332.261px 412.066px 518.66px " y="62.926px 62.926px 62.926px 62.926px ">TLCA</tspan>ST</text>
        </g>
    </g>
</svg>
